<svg width="24" height="24" viewBox="0 0 24 24" fill="none" xmlns="http://www.w3.org/2000/svg">
<path d="M18.75 6.24004H5.25C5.04688 6.24004 4.87109 6.31129 4.72266 6.45379C4.57422 6.59629 4.5 6.76504 4.5 6.96004V7.68004C4.5 7.87504 4.57422 8.04379 4.72266 8.18629C4.87109 8.32879 5.04688 8.40004 5.25 8.40004H18.75C18.9531 8.40004 19.1289 8.32879 19.2773 8.18629C19.4258 8.04379 19.5 7.87504 19.5 7.68004V6.96004C19.5 6.76504 19.4258 6.59629 19.2773 6.45379C19.1289 6.31129 18.9531 6.24004 18.75 6.24004ZM18.75 10.56H5.25C5.04688 10.56 4.87109 10.6313 4.72266 10.7738C4.57422 10.9163 4.5 11.085 4.5 11.28V12C4.5 12.195 4.57422 12.3638 4.72266 12.5063C4.87109 12.6488 5.04688 12.72 5.25 12.72H18.75C18.9531 12.72 19.1289 12.6488 19.2773 12.5063C19.4258 12.3638 19.5 12.195 19.5 12V11.28C19.5 11.085 19.4258 10.9163 19.2773 10.7738C19.1289 10.6313 18.9531 10.56 18.75 10.56ZM18.75 14.88H5.25C5.04688 14.88 4.87109 14.9513 4.72266 15.0938C4.57422 15.2363 4.5 15.405 4.5 15.6V16.32C4.5 16.515 4.57422 16.6838 4.72266 16.8263C4.87109 16.9688 5.04688 17.04 5.25 17.04H18.75C18.9531 17.04 19.1289 16.9688 19.2773 16.8263C19.4258 16.6838 19.5 16.515 19.5 16.32V15.6C19.5 15.405 19.4258 15.2363 19.2773 15.0938C19.1289 14.9513 18.9531 14.88 18.75 14.88Z" fill="white"/>
</svg>
